# Blender 3.6.2
# www.blender.org
mtllib 빙하 3.mtl
o Plane.002
v -5.442195 0.627578 1.013376
v -3.446739 0.659003 0.950791
v -5.470203 0.508210 -1.011771
v -3.470203 1.242948 -1.086629
v -5.568358 0.537027 -0.015879
v -4.470203 0.618690 1.043518
v -3.513683 0.785089 -0.015879
v -4.470203 0.715392 -1.117342
v -4.470203 0.617289 -0.015879
v -5.470203 0.582303 0.482067
v -3.970203 0.650115 0.882262
v -3.360562 1.171733 -0.516227
v -4.970203 0.509816 -1.195543
v -5.568358 0.553485 -0.513825
v -4.967423 0.627578 1.077323
v -3.356636 0.627300 0.482067
v -3.970203 1.174361 -1.014629
v -4.470203 0.775916 -0.513825
v -4.470203 0.582303 0.482067
v -4.970203 0.537027 -0.015879
v -3.970203 0.792137 -0.015879
v -3.970203 0.634373 0.482067
v -4.970203 0.582303 0.482067
v -4.970203 0.573653 -0.513825
v -3.970203 1.196908 -0.515346
v -5.611993 0.291148 1.102157
v -3.396352 0.291148 1.173903
v -5.518051 0.088852 -1.059764
v -3.283469 0.102529 -1.101300
v -5.697242 0.190000 -0.059055
v -4.535909 0.281220 1.180402
v -3.593863 0.247103 0.081878
v -4.395830 0.117364 -1.210065
v -5.622700 0.240574 0.502944
v -3.978497 0.281220 1.054172
v -3.388277 0.152179 -0.462607
v -4.947764 0.070187 -1.229611
v -5.662359 0.139426 -0.614178
v -5.097390 0.291148 1.190404
v -3.453665 0.240574 0.648002
v -3.845812 0.123411 -0.955388
v -5.619405 -0.080659 0.744607
v -5.511111 -0.078114 1.362968
v -3.778960 -0.078613 1.078165
v -3.084197 -0.078114 1.139374
v -3.237716 -0.085750 -0.660801
v -3.374449 -0.088655 -1.339199
v -5.186325 -0.089235 -1.327065
v -5.768211 -0.088296 -1.055957
v -5.836432 -0.085750 -0.446031
v -5.786830 -0.083205 0.154157
v -4.966829 -0.078114 1.392503
v -4.379153 -0.078613 1.289024
v -3.133799 -0.080659 0.539186
v -3.371918 -0.083205 -0.045423
v -3.967632 -0.088296 -1.204765
v -4.578341 -0.088835 -1.282410
v -4.518223 -0.085750 -0.554974
v -4.419018 -0.080659 0.645402
v -4.468620 -0.083205 0.045214
v -5.068814 -0.083205 0.094816
v -3.868427 -0.083205 -0.004389
v -3.818825 -0.080659 0.595799
v -5.019212 -0.080659 0.695004
v -5.118416 -0.085750 -0.505371
v -3.918029 -0.085750 -0.604577
v -5.393643 0.604941 0.731040
v -3.684868 0.654559 0.931137
v -3.436831 1.269416 -0.802466
v -5.220203 0.499855 -1.103657
v -5.568358 0.514389 -0.264852
v -4.717423 0.623134 1.028447
v -3.435159 0.717418 0.233094
v -4.220203 0.892000 -1.064990
v -4.470203 0.745079 -0.815583
v -4.470203 0.565628 0.233094
v -5.269280 0.537027 -0.015879
v -4.220203 0.671655 -0.015879
v -5.519280 0.559665 0.233094
v -4.220203 0.618690 1.043518
v -3.437122 0.913071 -0.265094
v -4.720203 0.625203 -1.156442
v -5.519280 0.530847 -0.762798
v -5.268756 0.627578 1.013376
v -3.356636 0.636365 0.731040
v -3.720203 1.249632 -1.051439
v -4.470203 0.647072 -0.264852
v -4.470203 0.600497 0.682164
v -4.720203 0.542876 -0.015879
v -3.763391 0.788553 -0.015879
v -3.970203 0.723324 0.233094
v -3.970203 0.631921 0.682164
v -4.220203 0.588325 0.482067
v -3.684868 0.632415 0.482067
v -4.970203 0.559665 0.233094
v -4.970203 0.604941 0.731040
v -5.220203 0.582303 0.482067
v -4.720203 0.582303 0.482067
v -4.970203 0.542192 -0.854684
v -4.970203 0.519683 -0.264852
v -5.269280 0.553485 -0.513825
v -4.720203 0.685002 -0.513825
v -3.970203 1.223176 -0.765501
v -3.970203 0.900858 -0.264906
v -4.220203 0.910927 -0.513877
v -3.686831 1.227062 -0.516518
v -5.554790 0.265861 0.785869
v -3.663821 0.286184 1.128649
v -3.266171 0.134048 -0.782235
v -5.232908 0.079520 -1.144687
v -5.679801 0.164713 -0.336617
v -4.815259 0.286184 1.153429
v -3.523764 0.224408 0.364940
v -4.120821 0.091523 -1.031047
v -5.659971 0.215287 0.221944
v -4.257203 0.281220 1.197915
v -3.491070 0.192713 -0.190320
v -4.671797 0.093419 -1.168507
v -5.590205 0.114139 -0.888302
v -5.418638 0.291148 1.114307
v -3.471107 0.265861 0.925564
v -3.564641 0.116279 -0.977165
v -4.457531 0.101303 1.234713
v -5.742036 0.053398 0.047551
v -3.224030 0.079957 0.593594
v -5.032110 0.106517 1.291453
v -3.328959 -0.000296 -1.220069
v -5.643131 0.000278 -1.109191
v -5.749396 0.026838 -0.530105
v -3.878728 0.101303 1.066169
v -3.216671 0.106517 1.171250
v -5.067044 -0.009524 -1.329669
v -5.621053 0.079957 0.623775
v -5.561552 0.106517 1.232563
v -3.906722 0.003208 -1.131128
v -4.487085 0.006432 -1.246237
v -3.552592 0.063940 0.018228
v -3.243295 0.026911 -0.561662
v -4.433016 0.385332 -1.163703
v -3.908008 0.575085 -0.933944
v -5.527094 0.459363 1.057767
v -5.546452 0.411438 0.492505
v -4.958984 0.253560 -1.161246
v -3.421546 0.459363 1.062347
v -3.974350 0.449955 0.968217
v -5.615358 0.315589 -0.564002
v -5.494127 0.267664 -0.984437
v -3.376836 0.452675 -1.093946
v -3.422673 0.545964 -0.489247
v -5.032406 0.459363 1.133863
v -3.453404 0.411438 0.565035
v -5.632800 0.363514 -0.037467
v -4.503057 0.449955 1.111960
v -3.462623 0.506439 0.032999
v -5.627814 -0.079387 1.070469
v -3.431578 -0.078364 1.108769
v -3.306083 -0.087203 -1.000000
v -5.477268 -0.088765 -1.191511
v -5.811631 -0.084477 -0.145937
v -4.671601 -0.078364 1.308790
v -3.252859 -0.081932 0.246882
v -4.272986 -0.088566 -1.243587
v -4.548282 -0.087293 -0.918692
v -4.443820 -0.081932 0.345308
v -5.427822 -0.083205 0.124486
v -4.168524 -0.083205 0.020412
v -5.703117 -0.081932 0.449382
v -4.079057 -0.078613 1.102966
v -3.304817 -0.084477 -0.353112
v -4.882333 -0.089035 -1.304737
v -5.802322 -0.087023 -0.750994
v -5.302917 -0.078114 1.345762
v -3.108998 -0.079387 0.839280
v -3.671040 -0.088476 -1.271982
v -4.493422 -0.084477 -0.254880
v -4.399086 -0.079636 0.886585
v -4.768717 -0.083205 0.070015
v -3.620173 -0.083205 -0.024906
v -3.843626 -0.081932 0.295705
v -3.798892 -0.079636 0.836982
v -4.118922 -0.080659 0.620600
v -3.476312 -0.080659 0.567492
v -5.044013 -0.081932 0.394910
v -4.994411 -0.079387 0.995099
v -5.319308 -0.080659 0.719806
v -4.719115 -0.080659 0.670203
v -5.152370 -0.087493 -0.916218
v -5.093615 -0.084477 -0.205278
v -5.477424 -0.085750 -0.475701
v -4.818319 -0.085750 -0.530173
v -3.942831 -0.087023 -0.904671
v -3.893228 -0.084477 -0.304483
v -4.218126 -0.085750 -0.579775
v -3.577873 -0.085750 -0.632689
v -3.599023 -0.084477 -0.328797
v -4.193325 -0.084477 -0.279681
v -4.245556 -0.087158 -0.911681
v -4.793518 -0.084477 -0.230079
v -5.452623 -0.084477 -0.175607
v -5.477346 -0.087258 -0.833606
v -4.696748 -0.079511 0.940842
v -5.248556 -0.079387 1.016102
v -5.373565 -0.081932 0.422146
v -3.453945 -0.079511 0.838131
v -4.098989 -0.079636 0.861783
v -4.143723 -0.081932 0.320506
v -3.548242 -0.081932 0.271293
v -4.743916 -0.081932 0.370109
v -4.850326 -0.087393 -0.917455
v -3.624457 -0.087113 -0.952335
v -3.512349 0.488836 -0.227588
v -3.388312 0.451786 0.299017
v -4.238703 0.449955 1.120717
v -4.766341 0.454659 1.090938
v -5.589626 0.387476 0.227519
v -3.642422 0.462564 -0.962880
v -5.624079 0.339551 -0.300734
v -3.462125 0.435401 0.828302
v -5.226555 0.258820 -1.072841
v -5.343697 0.459363 1.063842
v -3.351501 0.492747 -0.792342
v -5.554743 0.291626 -0.825550
v -3.674344 0.454659 1.029893
v -4.696000 0.334612 -1.111144
v -5.474216 0.435401 0.758454
v -4.170512 0.411852 -0.996731
v -3.328242 0.040118 -0.271716
v -4.196904 -0.000474 -1.188646
v -5.653859 0.093237 0.944851
v -4.777065 -0.007438 -1.287953
v -3.547699 0.103910 1.118709
v -5.696263 0.013558 -0.819648
v -3.286127 0.014440 -0.890894
v -5.360777 0.106517 1.230035
v -5.355088 -0.004623 -1.219430
v -3.220351 0.093237 0.882422
v -5.745716 0.040118 -0.241277
v -3.617840 0.002849 -1.175633
v -5.681544 0.066677 0.335663
v -4.743430 0.103910 1.231110
v -4.168130 0.101303 1.231069
v -3.458013 0.066677 0.305911
v -3.725111 0.919008 -0.265191
v -4.220203 0.797538 -0.264852
v -4.220203 0.902682 -0.789520
v -4.720203 0.593757 -0.264852
v -5.269280 0.514389 -0.264852
v -5.244742 0.526670 -0.808741
v -4.720203 0.602719 0.706602
v -5.181923 0.604941 0.731040
v -5.244742 0.559665 0.233094
v -3.684868 0.634143 0.706602
v -4.220203 0.600497 0.682164
v -4.220203 0.640669 0.233094
v -3.724130 0.721801 0.233094
v -4.720203 0.559665 0.233094
v -4.720203 0.655482 -0.835134
v -3.703517 1.333919 -0.784871
vn -0.1129 -0.9721 0.2058
vn 0.3276 -0.9405 0.0905
vn 0.1583 -0.9850 -0.0690
vn -0.0141 -0.9662 -0.2575
vn 0.3701 -0.9109 -0.1826
vn 0.1531 -0.9879 0.0240
vn -0.0053 -0.9997 0.0228
vn -0.0000 -0.9959 0.0906
vn 0.0733 -0.9928 0.0953
vn 0.0418 -0.9821 -0.1836
vn 0.2551 -0.8844 -0.3909
vn 0.7632 -0.6420 0.0728
vn 0.5146 -0.6631 -0.5436
vn -0.0648 -0.6546 -0.7532
vn -0.5522 -0.8071 0.2090
vn -0.3031 0.1448 -0.9419
vn -0.0279 -0.3525 -0.9354
vn 0.9452 -0.2337 -0.2278
vn 0.1299 -0.7174 0.6844
vn 0.9105 -0.4121 -0.0338
vn -0.8473 -0.5284 0.0540
vn 0.3868 -0.1243 0.9138
vn 0.1421 -0.4654 -0.8736
vn -0.9765 0.1454 0.1589
vn 0.7793 -0.6132 0.1294
vn 0.1186 0.1914 -0.9743
vn -0.1072 0.0620 0.9923
vn 0.9404 -0.0407 -0.3377
vn -0.1548 -0.3228 0.9337
vn -0.9663 0.0702 -0.2476
vn -0.5311 -0.1916 0.8254
vn 0.8968 -0.3985 0.1922
vn -0.1388 -0.2918 0.9463
vn 0.1360 -0.5144 -0.8467
vn 0.9204 -0.2961 0.2553
vn -0.9654 -0.2430 0.0943
vn 0.2087 -0.3742 -0.9036
vn 0.2645 -0.3856 0.8839
vn -0.9988 0.0015 -0.0485
vn 0.9387 -0.3363 0.0760
vn 0.0859 -0.0295 0.9959
vn 0.9145 -0.3922 -0.0994
vn 0.0750 -0.3767 -0.9233
vn -0.4458 -0.3652 -0.8172
vn -0.8106 0.5114 0.2852
vn -0.9343 -0.1069 -0.3401
vn -0.0003 1.0000 -0.0042
vn -0.0001 1.0000 -0.0032
vn 0.0003 1.0000 -0.0028
vn -0.0005 1.0000 -0.0040
vn 0.0002 1.0000 -0.0035
vn -0.0011 1.0000 -0.0031
vn -0.9772 0.1747 -0.1209
vn -0.9985 0.0286 -0.0464
vn -0.9634 0.1110 -0.2439
vn -0.9436 0.3302 0.0231
vn -0.9912 0.1202 0.0563
vn -0.9592 -0.1184 0.2565
vn 0.0443 -0.4015 -0.9148
vn 0.0156 -0.3982 -0.9172
vn -0.4766 -0.3310 -0.8144
vn -0.1431 -0.2865 -0.9473
vn -0.1731 -0.2757 -0.9455
vn 0.0588 -0.3737 -0.9257
vn 0.9293 -0.3541 -0.1050
vn 0.9267 -0.3508 -0.1345
vn 0.9113 -0.3912 -0.1281
vn 0.4244 0.0763 0.9022
vn 0.3083 0.0823 0.9477
vn 0.1348 0.1335 0.9818
vn 0.9522 -0.2966 0.0731
vn 0.9699 -0.2433 0.0093
vn 0.9419 -0.3326 0.0463
vn -0.9706 0.0911 0.2228
vn -0.9836 0.1340 -0.1211
vn -0.9060 0.4212 -0.0426
vn 0.2727 -0.3437 0.8986
vn 0.3253 0.1259 0.9372
vn 0.3303 0.0927 0.9393
vn 0.0462 -0.2914 -0.9555
vn 0.0163 -0.2785 -0.9603
vn 0.1984 -0.3710 -0.9072
vn -0.9473 -0.1642 -0.2752
vn -0.9998 -0.0164 0.0074
vn -0.9874 -0.1124 0.1117
vn 0.8697 -0.2976 0.3939
vn 0.9524 -0.1380 0.2719
vn 0.9501 -0.2172 0.2240
vn 0.1981 -0.4680 -0.8612
vn 0.1754 -0.4104 -0.8949
vn 0.1023 -0.4562 -0.8840
vn 0.1927 -0.1735 0.9658
vn 0.0260 0.0009 0.9997
vn -0.2169 0.1268 0.9679
vn 0.8841 -0.4281 -0.1873
vn 0.8777 -0.4283 -0.2149
vn 0.8972 -0.3995 0.1885
vn -0.2136 -0.1011 0.9717
vn -0.2968 0.1003 0.9496
vn -0.3878 -0.0167 0.9216
vn -0.8249 -0.4141 -0.3849
vn -0.8380 -0.3178 -0.4435
vn -0.7140 -0.6782 -0.1736
vn -0.1344 -0.5070 0.8514
vn -0.0796 -0.8258 0.5584
vn -0.3641 -0.4684 0.8050
vn 0.9901 0.1268 0.0602
vn 0.9508 -0.3078 -0.0356
vn 0.9841 -0.1714 -0.0463
vn -0.1012 -0.1805 0.9784
vn 0.0409 -0.6160 0.7867
vn -0.0927 -0.7204 0.6874
vn 0.1211 0.0666 -0.9904
vn 0.1907 0.1081 -0.9757
vn 0.1572 0.1602 -0.9745
vn 0.6649 -0.7379 0.1156
vn 0.6275 -0.7431 0.2327
vn 0.7956 -0.5662 0.2156
vn -0.9817 -0.0948 0.1653
vn -0.9167 -0.3886 -0.0937
vn -0.9749 0.2097 0.0755
vn -0.0399 -0.5623 -0.8260
vn 0.0204 -0.5504 -0.8347
vn 0.1848 -0.4510 -0.8732
vn 0.3600 -0.3710 0.8560
vn 0.1647 -0.8229 0.5438
vn 0.1989 -0.7436 0.6383
vn -0.8195 -0.5706 0.0537
vn -0.6226 -0.7688 0.1461
vn -0.5636 -0.8249 0.0425
vn 0.8309 -0.5558 -0.0264
vn 0.8577 -0.5110 0.0556
vn 0.9322 -0.3587 0.0471
vn 0.1111 -0.7877 0.6060
vn 0.1319 -0.8377 0.5300
vn 0.0490 -0.8539 0.5182
vn 0.9021 -0.3750 -0.2136
vn 0.9355 -0.3248 -0.1387
vn 0.9714 -0.1799 -0.1547
vn -0.2110 -0.4907 -0.8454
vn -0.1537 -0.4786 -0.8645
vn 0.0467 -0.3249 -0.9446
vn -0.3059 0.0526 -0.9506
vn 0.0238 -0.2257 -0.9739
vn -0.4490 -0.3394 -0.8265
vn -0.5952 -0.7080 0.3801
vn -0.6147 -0.6999 0.3636
vn -0.8961 -0.3697 0.2456
vn -0.0154 -0.8862 -0.4630
vn 0.0288 -0.9020 -0.4307
vn 0.0564 -0.6400 -0.7663
vn 0.3753 -0.8385 -0.3950
vn 0.3642 -0.8889 -0.2779
vn 0.4567 -0.8000 -0.3891
vn 0.7718 -0.6355 -0.0218
vn 0.5020 -0.8629 0.0584
vn 0.5484 -0.8342 0.0583
vn 0.2445 -0.9572 -0.1551
vn 0.1575 -0.9853 -0.0664
vn 0.3354 -0.9044 -0.2638
vn 0.0088 -0.9968 0.0800
vn -0.0000 -0.9879 -0.1551
vn 0.0693 -0.9932 0.0937
vn -0.0123 -0.9983 0.0565
vn -0.0039 -0.9979 0.0643
vn -0.0088 -0.9975 0.0707
vn -0.0000 -0.9968 0.0799
vn 0.0041 -0.9952 0.0973
vn 0.0005 -1.0000 -0.0017
vn 0.1448 -0.9874 0.0640
vn -0.0000 -0.9987 0.0503
vn 0.0120 -0.9971 0.0757
vn 0.2404 -0.9338 -0.2650
vn 0.1596 -0.9847 -0.0705
vn 0.2474 -0.9558 -0.1586
vn -0.0145 -0.9417 -0.3361
vn -0.0062 -0.9416 -0.3367
vn -0.0109 -0.9650 -0.2619
vn 0.0119 -0.9968 0.0787
vn 0.0117 -0.9968 0.0789
vn 0.3350 -0.9378 0.0908
vn 0.4056 -0.9102 0.0838
vn 0.4060 -0.9098 0.0861
vn -0.1970 -0.9301 -0.3100
vn 0.2316 -0.9404 -0.2489
vn 0.3516 -0.9091 0.2233
vt 0.875000 0.875000
vt 0.875000 1.000000
vt 1.000000 1.000000
vt 1.000000 0.875000
vt 0.375000 0.875000
vt 0.375000 1.000000
vt 0.500000 1.000000
vt 0.500000 0.875000
vt 0.375000 0.375000
vt 0.375000 0.500000
vt 0.500000 0.500000
vt 0.500000 0.375000
vt 0.875000 0.375000
vt 0.875000 0.500000
vt 1.000000 0.500000
vt 1.000000 0.375000
vt 0.625000 0.375000
vt 0.625000 0.500000
vt 0.750000 0.500000
vt 0.750000 0.375000
vt 0.625000 0.125000
vt 0.625000 0.250000
vt 0.750000 0.250000
vt 0.750000 0.125000
vt 0.875000 0.125000
vt 0.875000 0.250000
vt 1.000000 0.250000
vt 1.000000 0.125000
vt 0.125000 0.375000
vt 0.125000 0.500000
vt 0.250000 0.500000
vt 0.250000 0.375000
vt 0.125000 0.125000
vt 0.125000 0.250000
vt 0.250000 0.250000
vt 0.250000 0.125000
vt 0.375000 0.125000
vt 0.375000 0.250000
vt 0.500000 0.250000
vt 0.500000 0.125000
vt 0.125000 0.875000
vt 0.125000 1.000000
vt 0.250000 1.000000
vt 0.250000 0.875000
vt 0.125000 0.625000
vt 0.125000 0.750000
vt 0.250000 0.750000
vt 0.250000 0.625000
vt 0.375000 0.625000
vt 0.375000 0.750000
vt 0.500000 0.750000
vt 0.500000 0.625000
vt 0.625000 0.875000
vt 0.625000 1.000000
vt 0.750000 1.000000
vt 0.750000 0.875000
vt 0.625000 0.625000
vt 0.625000 0.750000
vt 0.750000 0.750000
vt 0.750000 0.625000
vt 0.875000 0.625000
vt 0.875000 0.750000
vt 1.000000 0.750000
vt 1.000000 0.625000
vt 0.625000 0.000000
vt 0.750000 0.000000
vt 0.375000 0.000000
vt 0.500000 0.000000
vt 0.000000 0.375000
vt 0.000000 0.250000
vt 0.000000 0.625000
vt 0.000000 0.500000
vt 0.000000 1.000000
vt 0.125000 0.000000
vt 0.250000 0.000000
vt 0.000000 0.875000
vt 0.000000 0.750000
vt 0.875000 0.000000
vt 1.000000 0.000000
vt 0.000000 0.125000
vt 0.000000 0.000000
s 0
usemtl Material.001
f 258/1/1 86/2/1 4/3/1 69/4/1
f 257/5/2 82/6/2 8/7/2 75/8/2
f 256/9/3 89/10/3 9/11/3 76/12/3
f 255/13/4 90/14/4 7/15/4 73/16/4
f 254/17/5 78/18/5 21/19/5 91/20/5
f 253/21/6 93/22/6 22/23/6 92/24/6
f 252/25/7 94/26/7 16/27/7 85/28/7
f 251/29/8 77/30/8 20/31/8 95/32/8
f 250/33/8 97/34/8 23/35/8 96/36/8
f 249/37/8 98/38/8 19/39/8 88/40/8
f 248/41/9 70/42/9 13/43/9 99/44/9
f 247/45/10 101/46/10 24/47/10 100/48/10
f 246/49/11 102/50/11 18/51/11 87/52/11
f 245/53/12 74/54/12 17/55/12 103/56/12
f 244/57/13 105/58/13 25/59/13 104/60/13
f 243/61/14 106/62/14 12/63/14 81/64/14
f 242/16/15 137/15/15 55/15/15 161/16/15
f 241/65/16 130/66/16 44/66/16 168/65/16
f 240/67/17 123/68/17 53/68/17 160/67/17
f 239/69/18 133/70/18 42/70/18 167/69/18
f 238/2/19 135/55/19 56/55/19 174/2/19
f 237/71/20 124/72/20 51/72/20 159/71/20
f 236/28/21 125/27/21 54/27/21 173/28/21
f 235/42/22 128/73/22 49/73/22 158/42/22
f 234/74/23 126/75/23 52/75/23 172/74/23
f 233/4/24 127/3/24 47/3/24 157/4/24
f 232/76/25 129/77/25 50/77/25 171/76/25
f 231/78/26 131/79/26 45/79/26 156/78/26
f 230/6/27 132/43/27 48/43/27 170/6/27
f 229/80/28 134/81/28 43/81/28 155/80/28
f 228/54/29 136/7/29 57/7/29 162/54/29
f 227/64/30 138/63/30 46/63/30 169/64/30
f 226/54/31 139/7/31 33/7/31 114/54/31
f 225/80/32 141/81/32 26/81/32 107/80/32
f 224/6/33 143/43/33 37/43/33 118/6/33
f 223/78/34 144/79/34 27/79/34 108/78/34
f 222/76/35 146/77/35 38/77/35 119/76/35
f 221/4/36 148/3/36 29/3/36 109/4/36
f 220/74/37 150/75/37 39/75/37 120/74/37
f 219/42/38 147/73/38 28/73/38 110/42/38
f 218/28/39 151/27/39 40/27/39 121/28/39
f 217/71/40 152/72/40 30/72/40 111/71/40
f 216/2/41 140/55/41 41/55/41 122/2/41
f 215/69/42 142/70/42 34/70/42 115/69/42
f 214/67/43 153/68/43 31/68/43 112/67/43
f 213/65/44 145/66/44 35/66/44 116/65/44
f 212/16/45 154/15/45 32/15/45 113/16/45
f 211/64/46 149/63/46 36/63/46 117/64/46
f 210/1/47 157/4/47 47/3/47 174/2/47
f 209/5/47 163/8/47 57/7/47 170/6/47
f 208/9/47 164/12/47 60/11/47 177/10/47
f 207/13/47 161/16/47 55/15/47 178/14/47
f 206/17/47 179/20/47 62/19/47 166/18/47
f 205/21/47 180/24/47 63/23/47 181/22/47
f 204/25/47 173/28/47 54/27/47 182/26/47
f 203/29/47 183/32/47 61/31/47 165/30/47
f 202/33/47 184/36/47 64/35/47 185/34/47
f 201/37/47 176/40/47 59/39/47 186/38/47
f 200/41/47 187/44/47 48/43/47 158/42/47
f 199/45/47 188/48/47 65/47/47 189/46/47
f 198/49/47 175/52/47 58/51/47 190/50/47
f 197/53/47 191/56/47 56/55/47 162/54/47
f 196/57/47 192/60/47 66/59/47 193/58/47
f 195/61/47 169/64/47 46/63/47 194/62/47
f 192/60/47 195/61/47 194/62/47 66/59/47
f 62/19/47 178/14/47 195/61/47 192/60/47
f 178/14/47 55/15/47 169/64/47 195/61/47
f 175/52/47 196/57/47 193/58/47 58/51/47
f 60/11/47 166/18/47 196/57/47 175/52/47
f 166/18/47 62/19/47 192/60/47 196/57/47
f 163/8/47 197/53/47 162/54/47 57/7/47
f 58/51/47 193/58/47 197/53/47 163/8/47
f 193/58/47 66/59/47 191/56/47 197/53/47
f 188/48/47 198/49/47 190/50/47 65/47/47
f 61/31/47 177/10/47 198/49/47 188/48/47
f 177/10/47 60/11/47 175/52/47 198/49/47
f 159/71/47 199/45/47 189/46/47 50/77/47
f 51/72/47 165/30/47 199/45/47 159/71/47
f 165/30/47 61/31/47 188/48/47 199/45/47
f 171/76/47 200/41/47 158/42/47 49/73/47
f 50/77/47 189/46/47 200/41/47 171/76/47
f 189/46/47 65/47/47 187/44/47 200/41/47
f 184/36/47 201/37/47 186/38/47 64/35/47
f 52/75/48 160/67/48 201/37/48 184/36/48
f 160/67/49 53/68/49 176/40/49 201/37/49
f 155/80/50 202/33/50 185/34/50 42/70/50
f 43/81/50 172/74/50 202/33/50 155/80/50
f 172/74/51 52/75/51 184/36/51 202/33/51
f 167/69/47 203/29/47 165/30/47 51/72/47
f 42/70/47 185/34/47 203/29/47 167/69/47
f 185/34/47 64/35/47 183/32/47 203/29/47
f 180/24/47 204/25/47 182/26/47 63/23/47
f 44/66/47 156/78/47 204/25/47 180/24/47
f 156/78/47 45/79/47 173/28/47 204/25/47
f 176/40/47 205/21/47 181/22/47 59/39/47
f 53/68/52 168/65/52 205/21/52 176/40/52
f 168/65/47 44/66/47 180/24/47 205/21/47
f 164/12/47 206/17/47 166/18/47 60/11/47
f 59/39/47 181/22/47 206/17/47 164/12/47
f 181/22/47 63/23/47 179/20/47 206/17/47
f 179/20/47 207/13/47 178/14/47 62/19/47
f 63/23/47 182/26/47 207/13/47 179/20/47
f 182/26/47 54/27/47 161/16/47 207/13/47
f 183/32/47 208/9/47 177/10/47 61/31/47
f 64/35/47 186/38/47 208/9/47 183/32/47
f 186/38/47 59/39/47 164/12/47 208/9/47
f 187/44/47 209/5/47 170/6/47 48/43/47
f 65/47/47 190/50/47 209/5/47 187/44/47
f 190/50/47 58/51/47 163/8/47 209/5/47
f 191/56/47 210/1/47 174/2/47 56/55/47
f 66/59/47 194/62/47 210/1/47 191/56/47
f 194/62/47 46/63/47 157/4/47 210/1/47
f 154/15/53 211/64/53 117/64/53 32/15/53
f 7/15/54 81/64/54 211/64/54 154/15/54
f 81/64/55 12/63/55 149/63/55 211/64/55
f 151/27/56 212/16/56 113/16/56 40/27/56
f 16/27/57 73/16/57 212/16/57 151/27/57
f 73/16/58 7/15/58 154/15/58 212/16/58
f 153/68/59 213/65/59 116/65/59 31/68/59
f 6/68/60 80/65/60 213/65/60 153/68/60
f 80/65/61 11/66/61 145/66/61 213/65/61
f 150/75/62 214/67/62 112/67/62 39/75/62
f 15/75/63 72/67/63 214/67/63 150/75/63
f 72/67/64 6/68/64 153/68/64 214/67/64
f 152/72/65 215/69/65 115/69/65 30/72/65
f 5/72/66 79/69/66 215/69/66 152/72/66
f 79/69/67 10/70/67 142/70/67 215/69/67
f 148/3/68 216/2/68 122/2/68 29/3/68
f 4/3/69 86/2/69 216/2/69 148/3/69
f 86/2/70 17/55/70 140/55/70 216/2/70
f 146/77/71 217/71/71 111/71/71 38/77/71
f 14/77/72 71/71/72 217/71/72 146/77/72
f 71/71/73 5/72/73 152/72/73 217/71/73
f 144/79/74 218/28/74 121/28/74 27/79/74
f 2/79/75 85/28/75 218/28/75 144/79/75
f 85/28/76 16/27/76 151/27/76 218/28/76
f 143/43/77 219/42/77 110/42/77 37/43/77
f 13/43/78 70/42/78 219/42/78 143/43/78
f 70/42/79 3/73/79 147/73/79 219/42/79
f 141/81/80 220/74/80 120/74/80 26/81/80
f 1/81/81 84/74/81 220/74/81 141/81/81
f 84/74/82 15/75/82 150/75/82 220/74/82
f 149/63/83 221/4/83 109/4/83 36/63/83
f 12/63/84 69/4/84 221/4/84 149/63/84
f 69/4/85 4/3/85 148/3/85 221/4/85
f 147/73/86 222/76/86 119/76/86 28/73/86
f 3/73/87 83/76/87 222/76/87 147/73/87
f 83/76/88 14/77/88 146/77/88 222/76/88
f 145/66/89 223/78/89 108/78/89 35/66/89
f 11/66/90 68/78/90 223/78/90 145/66/90
f 68/78/91 2/79/91 144/79/91 223/78/91
f 139/7/92 224/6/92 118/6/92 33/7/92
f 8/7/93 82/6/93 224/6/93 139/7/93
f 82/6/94 13/43/94 143/43/94 224/6/94
f 142/70/95 225/80/95 107/80/95 34/70/95
f 10/70/96 67/80/96 225/80/96 142/70/96
f 67/80/97 1/81/97 141/81/97 225/80/97
f 140/55/98 226/54/98 114/54/98 41/55/98
f 17/55/99 74/54/99 226/54/99 140/55/99
f 74/54/100 8/7/100 139/7/100 226/54/100
f 137/15/101 227/64/101 169/64/101 55/15/101
f 32/15/102 117/64/102 227/64/102 137/15/102
f 117/64/103 36/63/103 138/63/103 227/64/103
f 135/55/104 228/54/104 162/54/104 56/55/104
f 41/55/105 114/54/105 228/54/105 135/55/105
f 114/54/106 33/7/106 136/7/106 228/54/106
f 133/70/107 229/80/107 155/80/107 42/70/107
f 34/70/108 107/80/108 229/80/108 133/70/108
f 107/80/109 26/81/109 134/81/109 229/80/109
f 136/7/110 230/6/110 170/6/110 57/7/110
f 33/7/111 118/6/111 230/6/111 136/7/111
f 118/6/112 37/43/112 132/43/112 230/6/112
f 130/66/113 231/78/113 156/78/113 44/66/113
f 35/66/114 108/78/114 231/78/114 130/66/114
f 108/78/115 27/79/115 131/79/115 231/78/115
f 128/73/116 232/76/116 171/76/116 49/73/116
f 28/73/117 119/76/117 232/76/117 128/73/117
f 119/76/118 38/77/118 129/77/118 232/76/118
f 138/63/119 233/4/119 157/4/119 46/63/119
f 36/63/120 109/4/120 233/4/120 138/63/120
f 109/4/121 29/3/121 127/3/121 233/4/121
f 134/81/122 234/74/122 172/74/122 43/81/122
f 26/81/123 120/74/123 234/74/123 134/81/123
f 120/74/124 39/75/124 126/75/124 234/74/124
f 132/43/125 235/42/125 158/42/125 48/43/125
f 37/43/126 110/42/126 235/42/126 132/43/126
f 110/42/127 28/73/127 128/73/127 235/42/127
f 131/79/128 236/28/128 173/28/128 45/79/128
f 27/79/129 121/28/129 236/28/129 131/79/129
f 121/28/130 40/27/130 125/27/130 236/28/130
f 129/77/131 237/71/131 159/71/131 50/77/131
f 38/77/132 111/71/132 237/71/132 129/77/132
f 111/71/133 30/72/133 124/72/133 237/71/133
f 127/3/134 238/2/134 174/2/134 47/3/134
f 29/3/135 122/2/135 238/2/135 127/3/135
f 122/2/136 41/55/136 135/55/136 238/2/136
f 124/72/137 239/69/137 167/69/137 51/72/137
f 30/72/138 115/69/138 239/69/138 124/72/138
f 115/69/139 34/70/139 133/70/139 239/69/139
f 126/75/140 240/67/140 160/67/140 52/75/140
f 39/75/141 112/67/141 240/67/141 126/75/141
f 112/67/142 31/68/142 123/68/142 240/67/142
f 123/68/143 241/65/143 168/65/143 53/68/143
f 31/68/144 116/65/144 241/65/144 123/68/144
f 116/65/145 35/66/145 130/66/145 241/65/145
f 125/27/146 242/16/146 161/16/146 54/27/146
f 40/27/147 113/16/147 242/16/147 125/27/147
f 113/16/148 32/15/148 137/15/148 242/16/148
f 90/14/149 243/61/149 81/64/149 7/15/149
f 21/19/150 104/60/150 243/61/150 90/14/150
f 104/60/151 25/59/151 106/62/151 243/61/151
f 78/18/152 244/57/152 104/60/152 21/19/152
f 9/11/153 87/52/153 244/57/153 78/18/153
f 87/52/154 18/51/154 105/58/154 244/57/154
f 105/58/155 245/53/155 103/56/155 25/59/155
f 18/51/156 75/8/156 245/53/156 105/58/156
f 75/8/157 8/7/157 74/54/157 245/53/157
f 89/10/158 246/49/158 87/52/158 9/11/158
f 20/31/159 100/48/159 246/49/159 89/10/159
f 100/48/160 24/47/160 102/50/160 246/49/160
f 77/30/161 247/45/161 100/48/161 20/31/161
f 5/72/8 71/71/8 247/45/8 77/30/8
f 71/71/162 14/77/162 101/46/162 247/45/162
f 101/46/163 248/41/163 99/44/163 24/47/163
f 14/77/8 83/76/8 248/41/8 101/46/8
f 83/76/8 3/73/8 70/42/8 248/41/8
f 72/67/164 249/37/164 88/40/164 6/68/164
f 15/75/165 96/36/165 249/37/165 72/67/165
f 96/36/8 23/35/8 98/38/8 249/37/8
f 84/74/166 250/33/166 96/36/166 15/75/166
f 1/81/167 67/80/167 250/33/167 84/74/167
f 67/80/8 10/70/8 97/34/8 250/33/8
f 97/34/8 251/29/8 95/32/8 23/35/8
f 10/70/8 79/69/8 251/29/8 97/34/8
f 79/69/8 5/72/8 77/30/8 251/29/8
f 68/78/168 252/25/168 85/28/168 2/79/168
f 11/66/8 92/24/8 252/25/8 68/78/8
f 92/24/169 22/23/169 94/26/169 252/25/169
f 80/65/170 253/21/170 92/24/170 11/66/170
f 6/68/171 88/40/171 253/21/171 80/65/171
f 88/40/172 19/39/172 93/22/172 253/21/172
f 93/22/173 254/17/173 91/20/173 22/23/173
f 19/39/174 76/12/174 254/17/174 93/22/174
f 76/12/175 9/11/175 78/18/175 254/17/175
f 94/26/176 255/13/176 73/16/176 16/27/176
f 22/23/177 91/20/177 255/13/177 94/26/177
f 91/20/178 21/19/178 90/14/178 255/13/178
f 98/38/179 256/9/179 76/12/179 19/39/179
f 23/35/8 95/32/8 256/9/8 98/38/8
f 95/32/180 20/31/180 89/10/180 256/9/180
f 102/50/181 257/5/181 75/8/181 18/51/181
f 24/47/182 99/44/182 257/5/182 102/50/182
f 99/44/183 13/43/183 82/6/183 257/5/183
f 106/62/184 258/1/184 69/4/184 12/63/184
f 25/59/185 103/56/185 258/1/185 106/62/185
f 103/56/186 17/55/186 86/2/186 258/1/186
